<svg width="138" height="55" viewBox="0 0 138 55" fill="none" xmlns="http://www.w3.org/2000/svg">
<path fill-rule="evenodd" clip-rule="evenodd" d="M31 36.7957L135.217 0.118925C136.306 -0.264341 137.499 0.309346 137.882 1.40029C137.96 1.62328 138 1.85791 138 2.09426V53.368C138 54.2693 137.272 55 136.374 55H33.4355C35.5052 52.9058 36.7837 50.0226 36.7837 46.8397C36.7837 42.5459 34.457 38.7976 31 36.7957Z" fill="#F8C569"/>
<path fill-rule="evenodd" clip-rule="evenodd" d="M14.9842 43.0778L12.1169 44.7321C11.3168 43.2865 9.77544 42.3077 8.00533 42.3077C5.41212 42.3077 3.3099 44.4085 3.3099 47C3.3099 49.5915 5.41212 51.6923 8.00533 51.6923C9.787 51.6923 11.3369 50.7006 12.1325 49.2395L15 50.894C13.6316 53.3435 11.012 55 8.00533 55C3.58411 55 0 51.4183 0 47C0 42.5817 3.58411 39 8.00533 39C11.0005 39 13.6114 40.6438 14.9842 43.0778Z" fill="white"/>
<path fill-rule="evenodd" clip-rule="evenodd" d="M25 55C20.5817 55 17 51.4183 17 47C17 42.5817 20.5817 39 25 39C29.4183 39 33 42.5817 33 47C33 51.4183 29.4183 55 25 55ZM25 51.64C27.5626 51.64 29.64 49.5626 29.64 47C29.64 44.4374 27.5626 42.36 25 42.36C22.4374 42.36 20.36 44.4374 20.36 47C20.36 49.5626 22.4374 51.64 25 51.64Z" fill="white"/>
<path fill-rule="evenodd" clip-rule="evenodd" d="M47.1117 52.8226C48.5194 54.2742 50.3689 55 52.6602 55C54.8544 55 56.6262 54.3697 57.9757 53.1091C59.3252 51.8486 60 50.2347 60 48.2674C60 46.3574 59.3689 44.8247 58.1068 43.6692C56.8447 42.5136 55.4078 41.9359 53.7961 41.9359C51.9709 41.9359 50.5146 42.4802 49.4272 43.5689C49.6796 42.9004 50.0874 42.3274 50.6505 41.8499C51.2136 41.3724 52.1165 40.895 53.3592 40.4175C55.1262 39.749 56.4515 39.0948 57.335 38.455C58.2185 37.8151 58.7864 36.9127 59.0388 35.7476L55.9515 34C55.835 34.3438 55.6796 34.6589 55.4854 34.9454C55.2913 35.2319 55.1117 35.4659 54.9466 35.6473C54.7816 35.8288 54.5049 36.0341 54.1165 36.2633C53.7282 36.4925 53.4223 36.6644 53.199 36.779C52.9757 36.8936 52.5631 37.0894 51.9612 37.3663C51.3592 37.6432 50.8932 37.8581 50.5631 38.0109C48.3301 39.0996 46.8447 40.3076 46.1068 41.6351C45.3689 42.9625 45 44.8486 45 47.2933C45 49.528 45.7039 51.3711 47.1117 52.8226ZM52.6648 51.8503C51.6162 51.8503 50.7327 51.5256 50.0143 50.8762C49.3153 50.2268 48.9658 49.396 48.9658 48.3837C48.9658 47.3905 49.3395 46.5979 50.0871 46.0058C50.8347 45.4137 51.6842 45.1176 52.6357 45.1176C53.7036 45.1176 54.5774 45.4376 55.257 46.0774C55.9366 46.7172 56.2764 47.5242 56.2764 48.4983C56.2764 49.4724 55.9366 50.2745 55.257 50.9048C54.5774 51.5351 53.7133 51.8503 52.6648 51.8503Z" fill="white"/>
<path fill-rule="evenodd" clip-rule="evenodd" d="M74.3425 46.3337C73.2375 45.4097 71.8183 44.9477 70.085 44.9477H66.51V39H63V55H70.085C71.8183 55 73.2375 54.5329 74.3425 53.5988C75.4475 52.6646 76 51.4563 76 49.9738C76 48.4711 75.4475 47.2577 74.3425 46.3337ZM71.8562 51.4665C71.3904 51.8523 70.8108 52.0452 70.1175 52.0452H66.51V47.9025H70.1175C70.8108 47.9025 71.3904 48.0903 71.8562 48.466C72.3221 48.8417 72.555 49.3443 72.555 49.9738C72.555 50.5831 72.3221 51.0806 71.8562 51.4665Z" fill="white"/>
<path d="M92.75 42.36V55H89.25V42.36H84V39H98V42.36H92.75Z" fill="white"/>
<path d="M78 39H81V55H78V39Z" fill="white"/>
<path d="M104.419 49.0857L111.581 39L115 39V55H111.581V44.9143L104.419 55H101V39H104.419V49.0857Z" fill="white"/>
<path fill-rule="evenodd" clip-rule="evenodd" d="M129.336 50.3077L132.252 51.9912C130.786 53.8252 128.53 55 126 55C121.582 55 118 51.4183 118 47C118 42.5817 121.582 39 126 39C130.288 39 133.788 42.3738 133.991 46.6117L134 46.6154C134 46.6792 133.999 46.743 133.998 46.8068C133.999 46.871 134 46.9354 134 47H133.991C133.97 47.4367 133.913 47.8726 133.821 48.3077H121.492C122.059 50.2629 123.862 51.6923 126 51.6923C127.301 51.6923 128.478 51.1629 129.328 50.3077H129.336ZM130.4 45.4C129.743 43.6259 128.021 42.36 126 42.36C123.979 42.36 122.257 43.6259 121.6 45.4H130.4Z" fill="white"/>
</svg>
